<?xml version="1.0" encoding="iso-8859-1"?>
<!-- Generator: Adobe Illustrator 19.0.0, SVG Export Plug-In . SVG Version: 6.00 Build 0)  -->
<svg fill="#FFFFFF" version="1.1" id="Capa_1" xmlns="http://www.w3.org/2000/svg" xmlns:xlink="http://www.w3.org/1999/xlink" x="0px" y="0px"
	 viewBox="0 0 512 512" style="enable-background:new 0 0 512 512;" xml:space="preserve">
<g>
	<g>
		<path d="M451.966,148.422c-33.103,0-60.034,26.931-60.034,60.034h30.017c0-16.551,13.466-30.017,30.017-30.017
			s30.017,13.466,30.017,30.017s-13.466,30.017-30.017,30.017h-97.139c3.864-12.16,6.086-25.309,6.086-39.702
			c0-60.775-37.273-110.384-97.382-110.384c-34.727,0-65.276,18.567-82.574,46.462c-17.299-27.894-47.848-46.462-82.574-46.462
			C38.733,88.388,0,137.481,0,198.772c0,79.264,65.574,120.892,152.796,198.089l30.23,26.751
			c10.016-8.86,19.028-16.827,27.193-24.047c41.47-36.67,61.05-54.043,79.004-71.041h102.708c16.551,0,30.017,13.466,30.017,30.017
			s-13.466,30.017-30.017,30.017c-16.814,0-31.018-13.746-31.018-30.017h-30.017c0,16.062,6.48,31.195,18.245,42.609
			c11.581,11.236,26.777,17.425,42.79,17.425c33.103,0,60.034-26.931,60.034-60.034s-26.931-60.034-60.034-60.034h-73.14
			c8.254-9.359,15.885-19.283,22.326-30.017h110.848c33.103,0,60.034-26.931,60.034-60.034
			C512,175.353,485.069,148.422,451.966,148.422z M322.84,238.473H210.828v30.007h93.88c-7.48,9.612-16.317,19.056-26.192,28.708
			c-0.448,0.438-0.908,0.88-1.359,1.319h-96.347v30.017h64.139c-11.551,10.431-23.464,20.978-53.132,47.219
			c-2.773,2.452-5.7,5.041-8.797,7.78l-10.331-9.141C88.621,299.977,30.017,262.688,30.017,198.772
			c0-38.707,21.393-80.367,68.365-80.367c37.256,0,67.566,30.806,67.566,69.039h30.017c0-38.234,30.309-69.039,67.566-69.039
			c46.536,0,67.365,40.364,67.365,80.367C330.895,213.247,328.03,226.262,322.84,238.473z"/>
	</g>
</g>
<g>
</g>
<g>
</g>
<g>
</g>
<g>
</g>
<g>
</g>
<g>
</g>
<g>
</g>
<g>
</g>
<g>
</g>
<g>
</g>
<g>
</g>
<g>
</g>
<g>
</g>
<g>
</g>
<g>
</g>
</svg>
